<svg xmlns="http://www.w3.org/2000/svg" viewBox="0 0 300 300"><defs><style>.cls-1,.cls-5{fill:none;}.cls-2{fill:#ffb968;}.cls-3{fill:#bc5c00;}.cls-4{fill:#343434;}.cls-5{stroke:#e0943d;stroke-linecap:round;stroke-linejoin:round;stroke-width:10px;}</style></defs><title>Chuckling</title><g id="Layer_2" data-name="Layer 2"><g id="Layer_1-2" data-name="Layer 1"><rect class="cls-1" width="300" height="300"/><path class="cls-2" d="M68,184.14V106.55C68,63.35,104.9,28,150,28h0c45.1,0,82,35.35,82,78.55v77.59L151,210Z"/><path class="cls-3" d="M232,180c0,7.73-36.71,14-82,14s-82-6.27-82-14h0c0,30.93,30.44,56,68,56h28c37.56,0,68-25.07,68-56Z"/><rect class="cls-3" x="112" y="228" width="17" height="33"/><rect class="cls-3" x="166" y="228" width="17" height="33"/><path class="cls-4" d="M113.73,255H129.5a7,7,0,0,1,7,7v3a7,7,0,0,1-7,7h-13a7,7,0,0,1-7-7v-5.77a4.23,4.23,0,0,1,4.23-4.23Z"/><path class="cls-4" d="M167.73,255H183.5a7,7,0,0,1,7,7v3a7,7,0,0,1-7,7h-13a7,7,0,0,1-7-7v-5.77A4.23,4.23,0,0,1,167.73,255Z"/><rect class="cls-4" x="135.87" y="154" width="28.26" height="52" rx="6.1"/><path class="cls-5" d="M139,188c-39.21,0-71-22.39-71-50"/><path class="cls-5" d="M161,188c39.21,0,71-22.39,71-50"/><path class="cls-4" d="M150,145.44a49.83,49.83,0,0,1-35.48-14.7,6,6,0,0,1,0-8.48c2.34-2.35,5.63-1.69,8.48,0,8,4.74,16.8,5.74,27,5.74s14-1,27-5.74c3.11-1.14,6.14-2.35,8.48,0a6,6,0,0,1,0,8.48A49.83,49.83,0,0,1,150,145.44Z"/><path class="cls-4" d="M127.92,89.41c5.41,0,10.5,3.92,14.33,11.06a7.57,7.57,0,0,1,0,6.38c-.95,1.77-2.28,1.28-3.43,0-3.23-3.57-6.78-4.32-10.9-4.32s-5.66.75-10.9,4.32c-1.26.86-2.48,1.77-3.43,0a7.5,7.5,0,0,1,0-6.38C117.42,93.33,122.51,89.41,127.92,89.41Z"/><path class="cls-4" d="M172.08,89.41c5.42,0,10.5,3.92,14.33,11.06a7.5,7.5,0,0,1,0,6.38c-.95,1.77-2.28,1.28-3.43,0-3.23-3.57-6.78-4.32-10.9-4.32s-5.65.75-10.9,4.32c-1.26.86-2.48,1.77-3.43,0a7.57,7.57,0,0,1,0-6.38C161.58,93.33,166.67,89.41,172.08,89.41Z"/></g></g></svg>