<svg xmlns="http://www.w3.org/2000/svg" viewBox="0 0 300 300"><defs><style>.cls-1{fill:#ffb968;}.cls-2{fill:#bc5c00;}.cls-3{fill:#343434;}.cls-4,.cls-6{fill:none;}.cls-4{stroke:#e0943d;stroke-linecap:round;stroke-linejoin:round;stroke-width:10px;}.cls-5{fill:#58cdff;}</style></defs><title>Crying</title><g id="Layer_2" data-name="Layer 2"><g id="Layer_1-2" data-name="Layer 1"><path class="cls-1" d="M115.86,68h77.59c43.2,0,78.55,36.9,78.55,82h0c0,45.1-35.35,82-78.55,82H115.86L90,151Z"/><path class="cls-2" d="M120,232c-7.73,0-14-36.71-14-82s6.27-82,14-82h0c-30.93,0-56,30.44-56,68v28c0,37.56,25.07,68,56,68Z"/><rect class="cls-2" x="47" y="104" width="17" height="33" transform="translate(176 65) rotate(90)"/><rect class="cls-2" x="47" y="158" width="17" height="33" transform="translate(230 119) rotate(90)"/><path class="cls-3" d="M27.23,114.5H43a7,7,0,0,1,7,7v3a7,7,0,0,1-7,7H30a7,7,0,0,1-7-7v-5.77a4.23,4.23,0,0,1,4.23-4.23Z" transform="translate(159.5 86.5) rotate(90)"/><path class="cls-3" d="M27.23,168.5H43a7,7,0,0,1,7,7v3a7,7,0,0,1-7,7H30a7,7,0,0,1-7-7v-5.77a4.23,4.23,0,0,1,4.23-4.23Z" transform="translate(213.5 140.5) rotate(90)"/><rect class="cls-3" x="105.87" y="124" width="28.26" height="52" rx="6.1" transform="translate(270 30) rotate(90)"/><path class="cls-4" d="M112,139c0-39.21,22.39-71,50-71"/><path class="cls-4" d="M112,161c0,39.21,22.39,71,50,71"/><path class="cls-3" d="M154.56,150a49.83,49.83,0,0,1,14.7-35.48,6,6,0,0,1,8.48,0c2.35,2.34,1.69,5.63,0,8.48C173,131,172,139.8,172,150s1,14,5.74,27c1.14,3.11,2.35,6.14,0,8.48a6,6,0,0,1-8.48,0A49.83,49.83,0,0,1,154.56,150Z"/><path class="cls-3" d="M202.48,140.92c-4.87,0-9.44-3-12.88-8.33a4.86,4.86,0,0,1,0-4.81c.85-1.33,2.05-1,3.08,0,2.9,2.69,6.1,3.25,9.8,3.25s5.08-.56,9.8-3.25c1.13-.64,2.23-1.33,3.08,0a4.86,4.86,0,0,1,0,4.81C211.92,138,207.35,140.92,202.48,140.92Z"/><path class="cls-3" d="M202.48,160.08c4.87,0,9.44,3,12.88,8.33a4.86,4.86,0,0,1,0,4.81c-.85,1.33-2,1-3.08,0-2.9-2.69-6.1-3.25-9.8-3.25s-5.08.56-9.8,3.25c-1.13.64-2.23,1.33-3.08,0a4.86,4.86,0,0,1,0-4.81C193,163,197.61,160.08,202.48,160.08Z"/><path class="cls-5" d="M204.68,107.53c-2.83-2.83-2.47-14.46-5.78-17.77a8.48,8.48,0,1,0-12,12C190.22,105.07,201.85,104.7,204.68,107.53Z"/><path class="cls-5" d="M195,75.24c-2.83-2.83-2.46-14.45-5.77-17.76a8.48,8.48,0,1,0-12,12C180.54,72.78,192.16,72.41,195,75.24Z"/><path class="cls-5" d="M204.68,200c-2.83,2.84-2.47,14.46-5.78,17.77a8.48,8.48,0,0,1-12-12C190.22,202.46,201.85,202.83,204.68,200Z"/><path class="cls-5" d="M195,232.28c-2.83,2.83-2.46,14.46-5.77,17.77a8.48,8.48,0,0,1-12-12C180.54,234.75,192.16,235.11,195,232.28Z"/><rect class="cls-6" width="300" height="300"/></g></g></svg>