<svg id="Layer_1" data-name="Layer 1" xmlns="http://www.w3.org/2000/svg" viewBox="0 0 300 300"><title>Minions</title><path d="M68,184.14V106.55C68,63.35,104.9,28,150,28h0c45.1,0,82,35.35,82,78.55v77.59L151,210Z" style="fill:#ffb968"/><path d="M232,180c0,7.73-36.71,14-82,14s-82-6.27-82-14h0c0,30.93,30.44,56,68,56h28c37.56,0,68-25.07,68-56Z" style="fill:#bc5c00"/><rect x="112" y="228" width="17" height="33" style="fill:#bc5c00"/><rect x="166" y="228" width="17" height="33" style="fill:#bc5c00"/><path d="M113.73,255H129.5a7,7,0,0,1,7,7v3a7,7,0,0,1-7,7h-13a7,7,0,0,1-7-7v-5.77a4.23,4.23,0,0,1,4.23-4.23Z" style="fill:#343434"/><path d="M167.73,255H183.5a7,7,0,0,1,7,7v3a7,7,0,0,1-7,7h-13a7,7,0,0,1-7-7v-5.77a4.23,4.23,0,0,1,4.23-4.23Z" style="fill:#343434"/><rect x="135.87" y="154" width="28.26" height="52" rx="6.1" style="fill:#343434"/><path d="M139,188c-39.21,0-71-22.39-71-50" style="fill:none;stroke:#e0943d;stroke-linecap:round;stroke-linejoin:round;stroke-width:10px"/><path d="M161,188c39.21,0,71-22.39,71-50" style="fill:none;stroke:#e0943d;stroke-linecap:round;stroke-linejoin:round;stroke-width:10px"/><rect x="118.75" y="91" width="15.15" height="15.15" rx="7.58" style="fill:#343434"/><rect x="166.1" y="91" width="15.15" height="15.15" rx="7.58" style="fill:#343434"/><rect x="111.5" y="124" width="77" height="12" rx="6" style="fill:#343434"/><path d="M166.65,80.48l24.62.29a1.52,1.52,0,0,0,1.22-1.86h0a1.51,1.51,0,0,0-1.59-1.16l-25.15-2.46a1.52,1.52,0,0,0-1.36,1.87l.53,2.18A1.51,1.51,0,0,0,166.65,80.48Z" style="fill:#e0943d"/><path d="M131.24,80l-24.62.28a1.52,1.52,0,0,1-1.23-1.86h0a1.52,1.52,0,0,1,1.6-1.15l25.14-2.47a1.53,1.53,0,0,1,1.36,1.88L133,78.86A1.51,1.51,0,0,1,131.24,80Z" style="fill:#e0943d"/></svg>